<?xml version="1.0" standalone="no"?>
<!DOCTYPE svg PUBLIC "-//W3C//DTD SVG 20010904//EN"
 "http://www.w3.org/TR/2001/REC-SVG-20010904/DTD/svg10.dtd">
<svg version="1.0" xmlns="http://www.w3.org/2000/svg"
 width="700.000000pt" height="700.000000pt" viewBox="0 0 700.000000 700.000000"
 preserveAspectRatio="xMidYMid meet">
<metadata>
Created by potrace 1.11, written by Peter Selinger 2001-2013
</metadata>
<g transform="translate(0.000000,700.000000) scale(0.100000,-0.100000)"
fill="#000000" stroke="none">
<path d="M1089 6996 c-4 -4 -37 -10 -104 -21 -154 -24 -336 -104 -495 -219
-126 -90 -290 -286 -359 -426 -52 -104 -99 -256 -118 -375 -11 -67 -10 -4833
0 -4910 35 -254 157 -495 347 -685 188 -188 438 -314 695 -349 80 -11 4858 -9
4915 2 64 13 158 37 212 56 349 121 643 420 754 766 63 198 58 -27 60 2625 2
1508 -1 2438 -7 2475 -5 33 -12 75 -14 94 -3 19 -19 75 -35 125 -126 381 -426
677 -800 790 -192 58 -56 55 -2656 55 -1315 0 -2393 -1 -2395 -3z"/>
</g>
</svg>
